<svg xmlns="http://www.w3.org/2000/svg" xmlns:xlink="http://www.w3.org/1999/xlink" width="40" zoomAndPan="magnify" viewBox="0 0 30 30.000001" height="40" preserveAspectRatio="xMidYMid meet" version="1.0"><defs><clipPath id="8dcaaa175c"><path d="M 20.910156 11.160156 L 22.359375 11.160156 L 22.359375 12.609375 L 20.910156 12.609375 Z M 20.910156 11.160156 " clip-rule="nonzero"/></clipPath><clipPath id="97086569c9"><path d="M 21 11.160156 L 22.359375 11.160156 L 22.359375 12.609375 L 21 12.609375 Z M 21 11.160156 " clip-rule="nonzero"/></clipPath><clipPath id="b52e409a7d"><path d="M 21 11.160156 L 22 11.160156 L 22 12.609375 L 21 12.609375 Z M 21 11.160156 " clip-rule="nonzero"/></clipPath><clipPath id="80d3737690"><path d="M 5.007812 3.53125 L 24.992188 3.53125 L 24.992188 22.335938 L 5.007812 22.335938 Z M 5.007812 3.53125 " clip-rule="nonzero"/></clipPath><clipPath id="fdcd10ebed"><path d="M 14.414062 3.53125 L 15.585938 3.53125 C 18.082031 3.53125 20.472656 4.519531 22.238281 6.285156 C 24 8.046875 24.992188 10.4375 24.992188 12.933594 C 24.992188 15.425781 24 17.820312 22.238281 19.582031 C 20.472656 21.34375 18.082031 22.335938 15.585938 22.335938 L 14.414062 22.335938 C 11.917969 22.335938 9.527344 21.34375 7.761719 19.582031 C 6 17.820312 5.007812 15.425781 5.007812 12.933594 C 5.007812 10.4375 6 8.046875 7.761719 6.285156 C 9.527344 4.519531 11.917969 3.53125 14.414062 3.53125 Z M 14.414062 3.53125 " clip-rule="nonzero"/></clipPath><clipPath id="6ff2d4623d"><path d="M 4.03125 2.902344 L 25.96875 2.902344 L 25.96875 24.84375 L 4.03125 24.84375 Z M 4.03125 2.902344 " clip-rule="nonzero"/></clipPath></defs><g clip-path="url(#8dcaaa175c)"><path fill="#1b1c1c" d="M 21.632812 11.160156 C 21.234375 11.160156 20.910156 11.484375 20.910156 11.886719 C 20.910156 12.003906 20.9375 12.117188 20.988281 12.214844 C 21 12.238281 21.003906 12.261719 20.996094 12.285156 L 20.929688 12.53125 C 20.921875 12.566406 20.953125 12.597656 20.988281 12.589844 L 21.234375 12.523438 C 21.257812 12.515625 21.28125 12.519531 21.304688 12.53125 C 21.402344 12.582031 21.515625 12.609375 21.632812 12.609375 C 22.035156 12.609375 22.359375 12.285156 22.359375 11.886719 C 22.359375 11.484375 22.035156 11.160156 21.632812 11.160156 Z M 21.632812 11.160156 " fill-opacity="1" fill-rule="nonzero"/></g><g clip-path="url(#97086569c9)"><path fill="#ffffff" d="M 22.207031 11.886719 C 22.207031 12.042969 22.152344 12.179688 22.039062 12.289062 C 21.925781 12.402344 21.792969 12.457031 21.632812 12.457031 C 21.476562 12.457031 21.339844 12.402344 21.230469 12.289062 C 21.117188 12.179688 21.0625 12.042969 21.0625 11.886719 C 21.0625 11.726562 21.117188 11.59375 21.230469 11.480469 C 21.339844 11.367188 21.476562 11.3125 21.632812 11.3125 C 21.792969 11.3125 21.925781 11.367188 22.039062 11.480469 C 22.152344 11.59375 22.207031 11.726562 22.207031 11.886719 Z M 22.207031 11.886719 " fill-opacity="1" fill-rule="nonzero"/></g><g clip-path="url(#b52e409a7d)"><path fill="#1b1c1c" d="M 21.910156 12.039062 C 21.910156 12.019531 21.898438 12.003906 21.882812 12 L 21.773438 11.957031 C 21.757812 11.949219 21.738281 11.953125 21.722656 11.96875 L 21.695312 11.996094 C 21.695312 11.996094 21.695312 11.996094 21.691406 11.996094 C 21.644531 11.96875 21.550781 11.875 21.523438 11.828125 C 21.523438 11.824219 21.523438 11.824219 21.523438 11.824219 L 21.550781 11.796875 C 21.566406 11.78125 21.570312 11.761719 21.5625 11.746094 L 21.519531 11.636719 C 21.515625 11.621094 21.5 11.609375 21.480469 11.609375 L 21.46875 11.609375 C 21.441406 11.609375 21.417969 11.621094 21.402344 11.640625 C 21.378906 11.671875 21.351562 11.714844 21.359375 11.757812 C 21.363281 11.78125 21.382812 11.816406 21.414062 11.867188 C 21.476562 11.964844 21.554688 12.042969 21.652344 12.105469 C 21.703125 12.136719 21.738281 12.15625 21.761719 12.160156 C 21.765625 12.160156 21.769531 12.160156 21.777344 12.160156 C 21.816406 12.160156 21.851562 12.136719 21.878906 12.117188 C 21.898438 12.101562 21.910156 12.078125 21.910156 12.050781 Z M 21.910156 12.039062 " fill-opacity="1" fill-rule="nonzero"/></g><g clip-path="url(#80d3737690)"><g clip-path="url(#fdcd10ebed)"><path fill="#ffffff" d="M 5.007812 3.53125 L 24.992188 3.53125 L 24.992188 22.335938 L 5.007812 22.335938 Z M 5.007812 3.53125 " fill-opacity="1" fill-rule="nonzero"/></g></g><path fill="#070605" d="M 15 17.957031 C 12.75 17.957031 10.917969 16.125 10.917969 13.875 C 10.917969 11.621094 12.75 9.792969 15 9.792969 C 17.25 9.792969 19.082031 11.621094 19.082031 13.875 C 19.082031 16.125 17.25 17.957031 15 17.957031 Z M 15 8.347656 C 11.953125 8.347656 9.476562 10.828125 9.476562 13.875 C 9.476562 16.917969 11.953125 19.398438 15 19.398438 C 18.046875 19.398438 20.523438 16.917969 20.523438 13.875 C 20.523438 10.828125 18.046875 8.347656 15 8.347656 " fill-opacity="1" fill-rule="nonzero"/><g clip-path="url(#6ff2d4623d)"><path fill="#070605" d="M 23.425781 7.4375 C 23.425781 7.730469 23.183594 7.972656 22.890625 7.972656 L 21.359375 7.972656 C 21.066406 7.972656 20.824219 7.730469 20.824219 7.4375 L 20.824219 5.90625 C 20.824219 5.613281 21.066406 5.371094 21.359375 5.371094 L 22.890625 5.371094 C 23.183594 5.371094 23.425781 5.613281 23.425781 5.90625 Z M 15 20.960938 C 11.09375 20.960938 7.914062 17.78125 7.914062 13.875 C 7.914062 9.964844 11.09375 6.785156 15 6.785156 C 18.90625 6.785156 22.085938 9.964844 22.085938 13.875 C 22.085938 17.78125 18.90625 20.960938 15 20.960938 Z M 22.277344 2.902344 L 7.722656 2.902344 C 5.6875 2.902344 4.03125 4.5625 4.03125 6.597656 L 4.03125 21.148438 C 4.03125 23.1875 5.6875 24.84375 7.722656 24.84375 L 22.277344 24.84375 C 24.3125 24.84375 25.96875 23.1875 25.96875 21.148438 L 25.96875 6.597656 C 25.96875 4.5625 24.3125 2.902344 22.277344 2.902344 " fill-opacity="1" fill-rule="nonzero"/></g></svg>