<svg xmlns="http://www.w3.org/2000/svg" xmlns:xlink="http://www.w3.org/1999/xlink" width="40" zoomAndPan="magnify" viewBox="0 0 30 30.000001" height="40" preserveAspectRatio="xMidYMid meet" version="1.0"><defs><clipPath id="70726d7e32"><path d="M 4.285156 3.800781 L 26.058594 3.800781 L 26.058594 25.574219 L 4.285156 25.574219 Z M 4.285156 3.800781 " clip-rule="nonzero"/></clipPath></defs><g clip-path="url(#70726d7e32)"><path fill="#1b1c1c" d="M 15.171875 3.800781 C 9.160156 3.800781 4.285156 8.675781 4.285156 14.6875 C 4.285156 16.472656 4.714844 18.160156 5.476562 19.644531 C 5.644531 19.972656 5.6875 20.34375 5.589844 20.699219 L 4.597656 24.40625 C 4.457031 24.925781 4.933594 25.402344 5.453125 25.261719 L 9.164062 24.269531 C 9.515625 24.175781 9.890625 24.21875 10.214844 24.382812 C 11.703125 25.144531 13.386719 25.574219 15.171875 25.574219 C 21.183594 25.574219 26.058594 20.703125 26.058594 14.6875 C 26.058594 8.675781 21.183594 3.800781 15.171875 3.800781 Z M 15.171875 3.800781 " fill-opacity="1" fill-rule="nonzero"/></g><path fill="#ffffff" d="M 23.757812 14.6875 C 23.757812 15.253906 23.703125 15.8125 23.59375 16.363281 C 23.484375 16.917969 23.320312 17.453125 23.105469 17.972656 C 22.890625 18.496094 22.625 18.988281 22.3125 19.460938 C 22 19.929688 21.644531 20.363281 21.242188 20.761719 C 20.84375 21.160156 20.410156 21.515625 19.941406 21.828125 C 19.472656 22.140625 18.980469 22.40625 18.457031 22.621094 C 17.9375 22.835938 17.402344 23 16.847656 23.109375 C 16.292969 23.21875 15.734375 23.273438 15.171875 23.273438 C 14.609375 23.273438 14.050781 23.21875 13.496094 23.109375 C 12.945312 23 12.40625 22.835938 11.886719 22.621094 C 11.363281 22.40625 10.871094 22.140625 10.402344 21.828125 C 9.933594 21.515625 9.5 21.160156 9.101562 20.761719 C 8.703125 20.363281 8.34375 19.929688 8.03125 19.460938 C 7.71875 18.988281 7.453125 18.496094 7.238281 17.972656 C 7.023438 17.453125 6.859375 16.917969 6.75 16.363281 C 6.640625 15.8125 6.585938 15.253906 6.585938 14.6875 C 6.585938 14.125 6.640625 13.566406 6.75 13.011719 C 6.859375 12.460938 7.023438 11.921875 7.238281 11.402344 C 7.453125 10.882812 7.71875 10.386719 8.03125 9.917969 C 8.34375 9.449219 8.703125 9.015625 9.101562 8.617188 C 9.5 8.21875 9.933594 7.863281 10.402344 7.546875 C 10.871094 7.234375 11.363281 6.972656 11.886719 6.753906 C 12.40625 6.539062 12.945312 6.375 13.496094 6.265625 C 14.050781 6.15625 14.609375 6.101562 15.171875 6.101562 C 15.734375 6.101562 16.292969 6.15625 16.847656 6.265625 C 17.402344 6.375 17.9375 6.539062 18.457031 6.753906 C 18.980469 6.972656 19.472656 7.234375 19.941406 7.546875 C 20.410156 7.863281 20.84375 8.21875 21.242188 8.617188 C 21.644531 9.015625 22 9.449219 22.3125 9.917969 C 22.625 10.386719 22.890625 10.882812 23.105469 11.402344 C 23.320312 11.921875 23.484375 12.460938 23.59375 13.011719 C 23.703125 13.566406 23.757812 14.125 23.757812 14.6875 Z M 23.757812 14.6875 " fill-opacity="1" fill-rule="nonzero"/><path fill="#1b1c1c" d="M 19.300781 17.011719 C 19.296875 16.734375 19.128906 16.488281 18.871094 16.386719 L 17.261719 15.765625 C 17.003906 15.667969 16.714844 15.726562 16.519531 15.921875 L 16.109375 16.332031 C 16.089844 16.351562 16.058594 16.355469 16.035156 16.34375 C 15.328125 15.96875 13.890625 14.535156 13.515625 13.824219 C 13.503906 13.800781 13.507812 13.769531 13.527344 13.75 L 13.9375 13.339844 C 14.132812 13.144531 14.195312 12.855469 14.09375 12.601562 L 13.472656 10.992188 C 13.371094 10.730469 13.128906 10.5625 12.847656 10.558594 L 12.660156 10.558594 C 12.289062 10.554688 11.929688 10.722656 11.699219 11.015625 C 11.34375 11.464844 10.945312 12.140625 11.0625 12.808594 C 11.117188 13.148438 11.382812 13.683594 11.871094 14.445312 C 12.773438 15.859375 14 17.085938 15.414062 17.988281 C 16.175781 18.476562 16.710938 18.742188 17.050781 18.800781 C 17.128906 18.8125 17.210938 18.820312 17.292969 18.820312 C 17.878906 18.820312 18.449219 18.472656 18.84375 18.160156 C 19.136719 17.933594 19.308594 17.570312 19.304688 17.199219 Z M 19.300781 17.011719 " fill-opacity="1" fill-rule="nonzero"/></svg>